<?xml version="1.0" encoding="iso-8859-1"?>
<!-- Generator: Adobe Illustrator 19.0.0, SVG Export Plug-In . SVG Version: 6.00 Build 0)  -->
<svg version="1.1" id="Layer_1" xmlns="http://www.w3.org/2000/svg" xmlns:xlink="http://www.w3.org/1999/xlink" x="0px" y="0px"
	 viewBox="0 0 503.275 503.275" style="enable-background:new 0 0 503.275 503.275;" xml:space="preserve">
<g transform="translate(1 1)">
	<g>
		<path style="fill:#AAB1BA;" d="M253.01,88.075c-1.9,0.1-3.9,0.2-5.9,0.3c1.1,0,2.2,0,3.3,0
			C247.51,88.475,256.01,87.975,253.01,88.075z"/>
		<path style="fill:#AAB1BA;" d="M139.51,181.475c0-17.6,4.9-33.5,13.9-46.9c0.2,0,0.4,0,0.6,0c17.8-25.9,59.1-43.5,93.1-46.1
			c-34-0.5-82-8.5-82-8.5c-75.9-7.8-162.1-76.9-162.1-76.9c3.4,21.3,9.4,38.4,17.1,52.9v45.2c2.6,16.2,8.5,29.8,17,41.7l-0.8,40.2
			c3.4,30.7,17.9,47.8,42.7,59.7c34.1,17.1,59.7,17.1,59.7,17.1h58c-27.3-10.2-53.8-29-57.2-68.3h-0.9l-2.7-0.3l3.6-1.4
			C139.51,187.375,139.51,184.875,139.51,181.475z M82.71,181.275c0.3,0.2,0.6,0.4,0.8,0.6
			C83.31,181.775,83.01,181.575,82.71,181.275z"/>
		<path style="fill:#AAB1BA;" d="M497.91,3.075c0,0-86.2,69.1-162.1,76.8c0,0-51.2,8.5-85.3,8.5c35.8,0,75.9,16.2,96.4,46.1
			c0.3,0,0.6,0,0.9,0h-0.1c9.4,13.7,14.5,29,14.5,47.8c-0.9,3.4-0.9,6-0.9,8.5c-3.4,39.3-30.7,58-57.2,68.3h58c0,0,25.6,0,59.7-17.1
			c24.7-11.9,39.3-29,42.7-59.7v-38.4h-0.9c9.4-11.9,15.4-25.6,17.9-41.8v-45.2l-0.5-2.3C489.11,39.775,494.71,23.375,497.91,3.075z
			"/>
	</g>
	<path style="fill:#FFD0A1;" d="M378.41,310.275h-118.6c-2.6,3.4-6,6-9.4,8.5c-3.4-2.6-6.8-5.1-9.4-8.5h-118.6
		c-9.4,0-17.1,7.7-17.1,17.1v153.6c0,9.4,7.7,17.1,17.1,17.1h256c9.4,0,17.1-7.7,17.1-17.1v-153.6
		C395.51,317.975,387.81,310.275,378.41,310.275z M250.41,429.775c-7.7,0-14.5-3.4-18.8-8.5c-4.3-4.3-6.8-10.2-6.8-17.1
		c0-14.5,11.1-25.6,25.6-25.6c14.5,0,25.6,11.1,25.6,25.6c0,6.8-1.7,12.8-6,17.1C264.91,426.375,258.11,429.775,250.41,429.775z"/>
	<path style="fill:#ECF4F7;" d="M207.81,212.175c0-2.6-1.7-4.3-4.3-4.3s-4.3,1.7-4.3,4.3s1.7,4.3,4.3,4.3
		S207.81,214.775,207.81,212.175 M301.61,212.175c0-2.6-1.7-4.3-4.3-4.3s-4.3,1.7-4.3,4.3s1.7,4.3,4.3,4.3
		S301.61,214.775,301.61,212.175 M361.41,182.275c0,3.4,0,6-0.9,8.5c-3.4,39.3-30.7,58-57.2,68.3c-9.4,3.4-19.6,6.8-28.2,8.5
		c0,0-8.5-8.5-25.6-8.5s-25.6,8.5-25.6,8.5c-8.5-2.6-17.9-5.1-28.2-8.5c-26.5-10.2-53.8-29-57.2-68.3c0-2.6,0-5.1,0-8.5
		c0-17.9,5.1-34.1,14.5-47.8c20.6-29.8,60.7-46,96.6-46s75.1,16.2,96.4,46.1C356.21,148.175,361.41,164.375,361.41,182.275"/>
	<path style="fill:#FF7474;" d="M224.81,404.175c0-14.5,11.1-25.6,25.6-25.6c14.5,0,25.6,11.1,25.6,25.6c0,6.8-2.6,12.8-6,17.1
		c-5.1,5.1-11.9,8.5-19.6,8.5c-7.7,0-14.5-3.4-18.8-8.5C227.41,416.975,224.81,410.975,224.81,404.175"/>
	<path style="fill:#FFD0A1;" d="M259.81,310.275c-2.6,3.4-6,6-9.4,8.5c-3.4-2.6-6.8-5.1-9.4-8.5c-16.2-17.9-16.2-42.7-16.2-42.7
		s8.5-8.5,25.6-8.5s25.6,8.5,25.6,8.5S276.01,292.375,259.81,310.275"/>
</g>
<path style="fill:#51565F;" d="M379.41,503.275h-256c-11.9,0-21.3-9.4-21.3-21.3v-119.5c0-2.6,1.7-4.3,4.3-4.3
	c2.6,0,4.3,1.7,4.3,4.3v119.5c0,6.8,6,12.8,12.8,12.8h256c6.8,0,12.8-6,12.8-12.8v-119.5c0-2.6,1.7-4.3,4.3-4.3s4.3,1.7,4.3,4.3
	v119.5C400.81,493.875,391.41,503.275,379.41,503.275z M362.41,469.175c-0.9,0-0.9,0-1.7,0l-59.7-25.6c-1.7-0.9-2.6-2.6-2.6-4.3
	c0-0.9,0-0.9,0-1.7c0.9-2.6,3.4-3.4,6-2.6l59.7,25.6c1.7,0.9,2.6,2.6,2.6,4.3c0,0.9,0,0.9,0,1.7
	C365.81,468.275,364.11,469.175,362.41,469.175z M140.51,469.175c-1.7,0-3.4-0.9-4.3-2.6c0-0.9,0-0.9,0-1.7c0-1.7,0.9-3.4,2.6-4.3
	l59.7-25.6c2.6-0.9,4.3,0,6,2.6c0,0.9,0,0.9,0,1.7c0,1.7-0.9,3.4-2.6,4.3l-59.7,25.6C141.41,469.175,141.41,469.175,140.51,469.175z
	 M251.41,435.075c-15.4,0-28.2-11.9-29.9-27.3l-117.8-75.9c-0.9-0.9-1.7-2.6-1.7-3.4c0-11.9,9.4-21.3,21.3-21.3h85.3
	c2.6,0,4.3,1.7,4.3,4.3c0,2.6-1.7,4.3-4.3,4.3h-85.3c-6,0-11.9,4.3-12.8,10.2l111.8,71.7c3.4-12.8,15.4-23,29-23
	c13.7,0,25.6,9.4,29,23l111.8-71.7c-0.9-6-6-10.2-12.8-10.2h-85.3c-2.6,0-4.3-1.7-4.3-4.3c0-2.6,1.7-4.3,4.3-4.3h85.3
	c11.9,0,21.3,9.4,21.3,21.3c0,1.7-0.9,2.6-1.7,3.4l-117.8,75.9C279.61,423.075,266.81,435.075,251.41,435.075z M230.11,405.175
	c0,11.9,9.4,21.3,21.3,21.3s21.3-9.4,21.3-21.3l0,0c0-11.9-9.4-21.3-21.3-21.3S230.11,393.175,230.11,405.175L230.11,405.175z
	 M251.41,324.075c-0.9,0-1.7,0-2.6-0.9c-23-15.4-26.5-41.8-27.3-51.2c-40.1-10.2-85.3-30.7-85.3-88.7c0-60.6,59.7-98.1,115.2-98.1
	s115.2,37.5,115.2,98.1c0,58-45.2,78.5-85.3,88.7c-0.9,9.4-5.1,36.7-27.3,51.2C253.11,324.075,252.31,324.075,251.41,324.075z
	 M230.11,270.375c0.9,6.8,3.4,30.7,21.3,44.4c17.9-13.7,20.5-37.5,21.3-44.4c-2.6-1.7-9.4-6-21.3-6
	C240.31,264.375,232.71,268.675,230.11,270.375z M251.41,255.875c13.7,0,23,5.1,26.5,8.5c37.5-9.4,80.2-28.2,80.2-81.1
	c0-55.5-55.5-89.6-106.7-89.6s-106.7,34.1-106.7,89.6c0,52.9,42.7,70.8,80.2,81.1C228.41,260.975,237.81,255.875,251.41,255.875z
	 M362.41,264.375c-2.6,0-4.3-1.7-4.3-4.3c0-2.6,1.7-4.3,4.3-4.3c0,0,24.7-0.9,58-16.2c25.6-11.9,36.7-29,40.1-56.3
	c0-2.6,2.6-4.3,5.1-3.4c2.6,0,4.3,2.6,3.4,5.1c-3.4,30.7-17.1,49.5-45.2,63.1C388.81,263.475,363.21,264.375,362.41,264.375
	L362.41,264.375z M140.51,264.375L140.51,264.375c-0.9,0-26.5-0.9-61.4-17.9c-28.2-13.7-41-32.4-45.2-63.1c0-2.6,1.7-4.3,3.4-5.1
	c2.6,0,4.3,1.7,5.1,3.4c3.4,27.3,15.4,44.4,40.1,56.3c33.3,16.2,58,16.2,58,16.2c2.6,0,4.3,1.7,4.3,4.3
	C144.81,262.675,143.11,264.375,140.51,264.375z M298.41,221.675c-5.1,0-8.5-3.4-8.5-8.5s3.4-8.5,8.5-8.5s8.5,3.4,8.5,8.5
	S303.51,221.675,298.41,221.675z M204.51,221.675c-5.1,0-8.5-3.4-8.5-8.5s3.4-8.5,8.5-8.5s8.5,3.4,8.5,8.5
	S209.61,221.675,204.51,221.675z M108.91,192.675L108.91,192.675c-0.9,0-20.5-1.7-39.3-14.5c-31.6-20.5-48.6-45.2-52.9-75.1
	c0-2.6,1.7-4.3,3.4-5.1c2.6,0,4.3,1.7,5.1,3.4c3.4,27.3,19.6,49.5,49.5,69.1c16.2,11.1,34.1,12.8,34.1,12.8c2.6,0,4.3,2.6,4.3,4.3
	C113.21,190.975,110.61,192.675,108.91,192.675z M393.91,192.675c-2.6,0-4.3-1.7-4.3-4.3s1.7-4.3,4.3-4.3c0,0,17.9-1.7,34.1-12.8
	c29.9-19.6,46.1-41.8,49.5-69.1c0-2.6,2.6-4.3,5.1-3.4c2.6,0,4.3,2.6,3.4,5.1c-4.3,29.9-21.3,53.8-52.9,75.1
	C415.31,190.975,395.61,192.675,393.91,192.675L393.91,192.675z M123.41,136.375h-0.8c-0.9,0-27.3-7.7-43.5-17.1
	c-29.1-17-69.2-47.8-78.5-114.3c0-1.7,0.8-3.4,1.7-4.3c1.7-0.9,3.4-0.9,5.1,0c0.8,0.9,86.2,68.3,159.6,76c2.6,0,4.3,2.6,3.4,4.3
	c0,2.6-2.6,4.3-4.3,3.4c-63.1-6-131.4-52.9-155.3-70.8c11.1,55.5,46.9,81.9,72.5,97.3c16.2,9.4,41.8,16.2,41.8,17.1
	c2.6,0.9,3.4,3.4,2.6,5.1C126.81,135.475,125.11,136.375,123.41,136.375z M379.41,136.375c-1.7,0-3.4-0.9-4.3-3.4
	c-0.9-2.6,0.9-4.3,2.6-5.1c0,0,25.6-7.7,41.8-17.1c26.5-15.4,61.4-41.8,72.5-97.3c-23.9,17.9-92.2,64.9-155.3,70.8
	c-2.6,0-4.3-1.7-4.3-3.4c0-2.6,1.7-4.3,3.4-4.3c74.4-7.6,158.8-75,159.7-75.9c1.7-0.9,3.4-0.9,5.1,0s2.6,2.6,1.7,4.3
	c-9.4,66.6-49.5,97.3-78.5,114.3c-17.1,9.4-42.7,17.1-43.5,17.1C380.31,136.375,379.41,136.375,379.41,136.375z"/>
<g>
</g>
<g>
</g>
<g>
</g>
<g>
</g>
<g>
</g>
<g>
</g>
<g>
</g>
<g>
</g>
<g>
</g>
<g>
</g>
<g>
</g>
<g>
</g>
<g>
</g>
<g>
</g>
<g>
</g>
</svg>
