<svg id="Capa_1" enable-background="new 0 0 509 509" height="512" viewBox="0 0 509 509" width="512" xmlns="http://www.w3.org/2000/svg"><g><path d="m508.623 181.066c-2.366-15.297-15.622-27.045-31.572-27.045h-166.381c-4.143 0-7.5 3.358-7.5 7.5s3.357 7.5 7.5 7.5h166.382c7.985 0 14.699 5.552 16.483 12.998l-128.048 77.355c-7.069 4.27-15.85 4.269-22.917 0l-128.048-77.355c1.784-7.446 8.498-12.998 16.483-12.998h49.664c4.143 0 7.5-3.358 7.5-7.5s-3.357-7.5-7.5-7.5h-49.664c-15.949 0-29.206 11.748-31.572 27.046-.242.736-.377 1.521-.377 2.338v12.086c-.13-.007-.259-.02-.391-.02h-64.084c-4.143 0-7.5 3.358-7.5 7.5s3.357 7.5 7.5 7.5h64.084c.132 0 .26-.013.391-.02v35.701c-.13-.007-.259-.02-.391-.02h-30.518c-4.143 0-7.5 3.358-7.5 7.5s3.357 7.5 7.5 7.5h30.518c.132 0 .26-.013.391-.02v35.701c-.13-.007-.259-.02-.391-.02h-96.376c-4.143 0-7.5 3.358-7.5 7.5s3.357 7.5 7.5 7.5h96.376c.132 0 .26-.013.391-.02v13.822c0 .817.135 1.602.377 2.339 2.366 15.297 15.622 27.045 31.571 27.045h93.477c4.143 0 7.5-3.358 7.5-7.5s-3.357-7.5-7.5-7.5h-93.477c-7.985 0-14.699-5.552-16.483-12.998l105.475-63.719 14.817 8.951c5.926 3.58 12.57 5.37 19.214 5.37 6.645 0 13.289-1.79 19.215-5.37l14.897-9c.271.221.555.432.863.619l104.531 63.148c-1.784 7.446-8.498 12.998-16.483 12.998h-122.568c-4.143 0-7.5 3.358-7.5 7.5s3.357 7.5 7.5 7.5h122.569c15.949 0 29.205-11.748 31.571-27.044.242-.737.377-1.521.377-2.339v-142.19c.001-.817-.134-1.602-.376-2.339zm-294.565 128.671v-110.474l91.436 55.238zm279.942 0-91.436-55.237 91.436-55.237z"/><path d="m60.639 261.132h77.511c4.143 0 7.5-3.358 7.5-7.5s-3.357-7.5-7.5-7.5h-77.511c-4.143 0-7.5 3.358-7.5 7.5s3.357 7.5 7.5 7.5z"/><path d="m68.291 296.794h-60.791c-4.143 0-7.5 3.358-7.5 7.5s3.357 7.5 7.5 7.5h60.791c4.143 0 7.5-3.358 7.5-7.5s-3.357-7.5-7.5-7.5z"/></g></svg>