<svg height="512pt" viewBox="0 -75 512 511" width="512pt" xmlns="http://www.w3.org/2000/svg"><path d="m512 20.535156c0-11.507812-9.640625-20.269531-20.035156-20.03125h-395.964844c-17.800781 0-26.75 21.644532-14.078125 34.203125l145.609375 144.347657-145.753906 147.386718c-12.464844 12.605469-3.503906 34.0625 14.222656 34.0625h396c10.949219 0 19.96875-8.933594 19.996094-19.945312 0-.019532.003906-.035156.003906-.054688zm-40 271.300782-111.53125-112.78125 111.53125-110.5625zm-327.414062-251.332032h298.828124l-149.414062 148.117188zm111.351562 166.710938 23.980469 23.773437c7.796875 7.726563 20.363281 7.726563 28.160156 0l23.980469-23.773437 112.035156 113.289062h-300.1875zm0 0"/><path d="m45.332031 124.503906h50.667969c11.046875 0 20-8.953125 20-20s-8.953125-20-20-20h-50.667969c-11.046875 0-20 8.953125-20 20s8.957031 20 20 20zm0 0"/><path d="m90.667969 180.503906c0-11.046875-8.953125-20-20-20h-50.667969c-11.046875 0-20 8.953125-20 20s8.953125 20 20 20h50.667969c11.042969 0 20-8.953125 20-20zm0 0"/><path d="m116 256.503906c0-11.046875-8.953125-20-20-20h-50.667969c-11.046875 0-20 8.953125-20 20s8.953125 20 20 20h50.667969c11.046875 0 20-8.953125 20-20zm0 0"/></svg>