<?xml version="1.0" encoding="iso-8859-1"?>
<!-- Generator: Adobe Illustrator 19.0.0, SVG Export Plug-In . SVG Version: 6.00 Build 0)  -->
<svg version="1.1" id="Capa_1" xmlns="http://www.w3.org/2000/svg" xmlns:xlink="http://www.w3.org/1999/xlink" x="0px" y="0px"
	 viewBox="0 0 512 512" style="enable-background:new 0 0 512 512;" xml:space="preserve">
<g>
	<g>
		<path d="M496.999,154.5c-16.228,0-373.46,0-382.924,0c-8.284,0-15,6.716-15,15s6.716,15,15,15h121.898l-9.707,56.5H64.537
			c-8.284,0-15,6.716-15,15s6.716,15,15,15h156.575l-9.707,56.5H15c-8.284,0-15,6.716-15,15s6.716,15,15,15
			c3.384,0,440.969,0,452.276,0c7.305,0,13.547-5.262,14.783-12.46l29.721-172.99C513.34,163.045,506.409,154.5,496.999,154.5z
			 M440.528,184.5l-92.669,52.967l-56.27-52.967H440.528z M454.634,327.5h-212.79l21.98-127.936l71.557,67.358
			c4.806,4.525,12.003,5.372,17.725,2.101l123.725-70.718L454.634,327.5z"/>
	</g>
</g>
<g>
</g>
<g>
</g>
<g>
</g>
<g>
</g>
<g>
</g>
<g>
</g>
<g>
</g>
<g>
</g>
<g>
</g>
<g>
</g>
<g>
</g>
<g>
</g>
<g>
</g>
<g>
</g>
<g>
</g>
</svg>
